<?xml version="1.0" encoding="utf-8"?>
<svg viewBox="209.459 73.508 31.462 50.892" width="31.462" height="50.892" xmlns="http://www.w3.org/2000/svg">
  <path d="M 240.921 92.938 L 240.921 82.774 L 225.19 73.508 L 209.459 82.774 L 209.459 101.63 L 214.559 98.72 L 214.559 85.719 L 227.632 93.297 L 212.548 101.989 L 233.199 113.913 L 225.19 118.546 L 214.559 112.368 L 214.559 105.293 L 209.459 102.348 L 209.459 115.313 L 225.19 124.4 L 240.921 115.313 L 240.921 93.656 L 235.821 96.601 L 235.821 109.567 L 222.747 101.989 L 237.832 93.297 L 219.551 82.738 L 225.19 79.398 L 235.821 85.683 L 235.821 89.993 L 240.921 92.938 Z" fill="#E60128" transform="matrix(1, 0, 0, 1, 7.105427357601002e-15, 0)"/>
</svg>