<?xml version="1.0" encoding="utf-8"?>
<svg width="182" height="52" viewBox="0 0 182 52" fill="none" xmlns="http://www.w3.org/2000/svg" xmlns:bx="https://boxy-svg.com">
  <defs>
    <style bx:fonts="Bakbak One">@import url(https://fonts.googleapis.com/css2?family=Bakbak+One%3Aital%2Cwght%400%2C400&amp;display=swap);</style>
  </defs>
  <path d="M31.462 19.4303V9.2662L15.731 0L0 9.2662V28.1218L5.1 25.2127V12.2113L18.1732 19.7894L3.08873 28.481L23.7401 40.4049L15.731 45.038L5.1 38.8606V31.7852L0 28.8401V41.8056L15.731 50.8923L31.462 41.8056V20.1486L26.362 23.0937V36.0592L13.2887 28.481L28.3732 19.7894L10.0923 9.23028L15.731 5.89014L26.362 12.1754V16.4852L31.462 19.4303Z" fill="#E60128" transform="matrix(1, 0, 0, 1, -2.842170943040401e-14, 0)"/>
  <text style="fill: rgb(51, 51, 51); font-family: 'Bakbak One'; font-size: 16px; white-space: pre;" x="37.001" y="22.564" transform="matrix(1, 0, 0, 1, -2.842170943040401e-14, 0)">Cyber Smart Teens</text>
  <text style="fill: rgb(51, 51, 51); font-family: Arial, sans-serif; font-size: 11px; white-space: pre;" x="37.23" y="37.92" transform="matrix(1, 0, 0, 1, -2.842170943040401e-14, 0)">Interactive Lerning Platform</text>
</svg>